# AST/ASF file generated using VICON BodyLanguage
# -----------------------------------------------
:version 1.10
:name VICON
:units
  mass 1.0
  length 0.45
  angle deg
:documentation
   .ast/.asf automatically generated from VICON data using
   VICON BodyBuilder and BodyLanguage model FoxedUp or BRILLIANT.MOD
:root
   order TX TY TZ RX RY RZ
   axis XYZ
   position 0 0 0  
   orientation 0 0 0 
:bonedata
  begin
     id 1 
     name lhipjoint
     direction 0.711131 -0.61297 0.344326 
     length 2.29162 
     axis 0 0 0  XYZ
  end
  begin
     id 2 
     name lfemur
     direction 0.34202 -0.939693 0  
     length 6.71424  
     axis 0 0 20  XYZ
    dof rx ry rz
    limits (-160.0 20.0)
           (-70.0 70.0)
           (-60.0 70.0)
  end
  begin
     id 3 
     name ltibia
     direction 0.34202 -0.939693 0   
     length 6.7087   
     axis 0 0 20   XYZ
    dof rx
    limits (-10.0 170.0)
  end
  begin
     id 4 
     name lfoot
     direction 0.0230374 -0.0632947 0.997729   
     length 1.56743   
     axis -90 7.62852e-016 20   XYZ
    dof rx rz
    limits (-45.0 90.0)
           (-70.0 20.0)
  end
  begin
     id 5 
     name ltoes
     direction 1.53585e-011 -4.21885e-011 1   
     length 0.802914   
     axis -90 7.62852e-016 20   XYZ
    dof rx
    limits (-90.0 20.0)
  end
  begin
     id 6 
     name rhipjoint
     direction -0.733192 -0.592884 0.333043   
     length 2.36925  
     axis 0 0 0  XYZ 
  end
  begin
     id 7 
     name rfemur
     direction -0.34202 -0.939693 0   
     length 6.67027   
     axis 0 0 -20   XYZ
    dof rx ry rz
    limits (-160.0 20.0)
           (-70.0 70.0)
           (-70.0 60.0)
  end
  begin
     id 8 
     name rtibia
     direction -0.34202 -0.939693 0   
     length 6.6862   
     axis 0 0 -20   XYZ
    dof rx
    limits (-10.0 170.0)
 end
 begin
     id 9 
     name rfoot
     direction -0.0949739 -0.260939 0.960672   
     length 1.67698  
     axis -90 -7.62852e-016 -20   XYZ
    dof rx rz
    limits (-45.0 90.0)
           (-20.0 70.0)
  end
  begin
     id 10 
     name rtoes
     direction -1.5353e-011 -4.21868e-011 1   
     length 0.846298   
     axis -90 -7.62852e-016 -20   XYZ
    dof rx
    limits (-90.0 20.0)
  end
  begin
     id 11 
     name lowerback
     direction -0.0206828 0.999785 -0.00109866   
     length 2.04382   
     axis 0 0 0   XYZ
    dof rx ry rz
    limits (-20.0 45.0)
           (-30.0 30.0)
           (-30.0 30.0)
  end
  begin
     id 12 
     name upperback
     direction -0.0105003 0.999727 -0.0208904   
     length 2.04538   
     axis 0 0 0   XYZ
    dof rx ry rz
    limits (-20.0 45.0)
           (-30.0 30.0)
           (-30.0 30.0)
  end
  begin
     id 13 
     name thorax
     direction -0.000416255 0.999808 -0.0196023   
     length 2.0399   
     axis 0 0 0   XYZ
    dof rx ry rz
    limits (-20.0 45.0)
           (-30.0 30.0)
           (-30.0 30.0)
  end
  begin
     id 14 
     name lowerneck
     direction 0.0627861 0.989205 0.13241   
     length 1.46207   
     axis 0 0 0   XYZ
    dof rx ry rz
    limits (-20.0 45.0)
           (-30.0 30.0)
           (-30.0 30.0)
  end
  begin
     id 15 
     name upperneck
     direction 0.00627179 0.994526 0.104303   
     length 1.41419   
     axis 0 0 0   XYZ
    dof rx ry rz
    limits (-20.0 45.0)
           (-30.0 30.0)
           (-30.0 30.0)
  end
  begin
     id 16
     name head
     direction -0.00443838 0.999688 0.0245968  
     length 1.50718  
     axis 0 0 0   XYZ
    dof rx ry rz
    limits (-20.0 45.0)
           (-30.0 30.0)
           (-30.0 30.0)
  end
  begin
     id 17 
     name lclavicle
     direction 0.758742 0.650995 -0.0227258  
     length 2.86888  
     axis 0 0 0   XYZ
    dof ry rz
    limits (-20.0 10.0)
           (0.0 20.0)
  end
  begin
     id 18 
     name lhumerus
     direction 1 -4.48962e-011 1.06664e-027   
     length 4.65776   
     axis -180 -30 -90   XYZ
    dof rx ry rz
    limits (-60.0 90.0)
           (-90.0 90.0)
           (-90.0 90.0)
  end
  begin
     id 19
     name lradius
     direction 1 -4.48968e-011 1.40404e-026   
     length 3.55539   
     axis -180 -30 -90   XYZ
    dof rx
    limits (-10.0 170.0)
  end
  begin
     id 20
     name lwrist
     direction 1 -4.48976e-011 3.32647e-026   
     length 1.77769   
     axis -2.20186e-014 90 90   XYZ
    dof ry
    limits (-180.0 0.0)
 end
  begin
     id 21 
     name lhand
     direction 1 -4.48982e-011 6.65293e-026   
     length 0.707264   
     axis -4.24514e-014 90 90   XYZ
    dof rx rz
    limits (-90.0 90.0)
           (-45.0 45.0)
  end
  begin
     id 22 
     name lfingers
     direction 1 -4.48966e-011 1.33059e-025   
     length 0.570215   
     axis -8.49028e-014 90 90   XYZ
    dof rx
    limits (0.0 90.0)
  end
  begin
     id 23
     name lthumb
     direction 0.707107 -6.3493e-011 0.707107   
     length 0.818718   
     axis -90 45 2.85299e-015   XYZ
    dof rx rz
    limits (-45.0 45.0)
           (-45.0 45.0)
  end
  begin
     id 24 
     name rclavicle
     direction -0.870343 0.482028 -0.100759   
     length 3.2251  
     axis 0 0 0   XYZ 
    dof ry rz
    limits (-10.0 20.0)
           (-20.0 0.0)
  end
  begin
     id 25 
     name rhumerus
     direction -1 -4.48974e-011 -9.45849e-028  
     length 4.71925   
     axis -180 30 90   XYZ
    dof rx ry rz
    limits (-90.0 60.0)
           (-90.0 90.0)
           (-90.0 90.0)
  end
  begin
     id 26 
     name rradius
     direction -1 -4.48965e-011 1.17607e-026   
     length 3.5699   
     axis -180 30 90   XYZ
    dof rx
    limits (-10.0 170.0)
  end
  begin
     id 27 
     name rwrist
     direction -1 -4.48968e-011 3.32647e-026   
     length 1.78495   
     axis -2.20186e-014 -90 -90   XYZ
    dof ry
    limits (-180.0 0.0)
  end
  begin
     id 28
     name rhand
     direction -1 -4.48995e-011 6.65293e-026   
     length 0.507757   
     axis -4.24514e-014 -90 -90   XYZ
    dof rx rz
    limits (-90.0 90.0)
           (-45.0 45.0)
  end
  begin
     id 29
     name rfingers
     direction -1 -4.48864e-011 1.33059e-025   
     length 0.409367   
     axis -8.49028e-014 -90 -90   XYZ
    dof rx
    limits (0.0 90.0)
  end
  begin
     id 30
     name rthumb
     direction -0.707107 -6.3494e-011 0.707107   
     length 0.587771   
     axis -90 -45 -2.85299e-015   XYZ
    dof rx rz
    limits (-45.0 45.0)
           (-45.0 45.0)
  end
:hierarchy
  begin
    root lhipjoint rhipjoint lowerback
    lhipjoint lfemur
    lfemur ltibia
    ltibia lfoot
    lfoot ltoes
    rhipjoint rfemur
    rfemur rtibia
    rtibia rfoot
    rfoot rtoes
    lowerback upperback
    upperback thorax
    thorax lowerneck lclavicle rclavicle
    lowerneck upperneck
    upperneck head
    lclavicle lhumerus
    lhumerus lradius
    lradius lwrist
    lwrist lhand lthumb
    lhand lfingers
    rclavicle rhumerus
    rhumerus rradius
    rradius rwrist
    rwrist rhand rthumb
    rhand rfingers
  end

#!OML:ASF E:\Steps\Project 1\Capture day 1\Session 2\Subject.ASF
:FULLY-SPECIFIED
:DEGREES
32
root 19.1831 16.3699 36.4364 -152.425 -1.43621 178.28
lowerback -31.7247 -1.61084 -6.85389
upperback -2.68882 -0.664098 -0.532462
thorax 13.4918 -1.09931 2.74913
lowerneck -3.972 -2.01125 2.70209
upperneck 5.96629 -2.91635 -0.153238
head 2.53009 -1.4205 -0.612026
rclavicle 6.95746e-015 3.18055e-014
rhumerus -35.3983 -20.0533 -78.852
rradius 28.4344
rwrist 0.217843
rhand -8.0328 -55.6561
rfingers 7.12502
rthumb 17.8773 -84.8544
lclavicle 6.95746e-015 3.18055e-014
lhumerus -28.0386 5.26221 82.2376
lradius 19.6481
lwrist -6.55626
lhand -21.5411 -9.27103
lfingers 7.12502
lthumb 4.85186 20.6534
rfemur -22.2685 6.3465 17.9785
rtibia 5.50324
rfoot -18.7299 -7.66456
rtoes -37.4874
lfemur -24.3316 -8.49061 -20.2655
ltibia 7.66133
lfoot -8.40475 0.735122
ltoes -35.4401
33
root 19.184 16.3717 36.4362 -152.553 -1.4827 178.298
lowerback -31.6116 -1.62929 -6.83807
upperback -2.64911 -0.690315 -0.496637
thorax 13.4934 -1.10535 2.77251
lowerneck -3.90509 -2.01924 2.68299
upperneck 5.93042 -2.91578 -0.25223
head 2.5046 -1.42365 -0.638731
rclavicle 9.39258e-015 -2.70347e-014
rhumerus -35.452 -20.1183 -78.7213
rradius 28.2275
rwrist 0.370938
rhand -8.13138 -56.0894
rfingers 7.12502
rthumb 17.7824 -85.2964
lclavicle 9.39258e-015 -2.70347e-014
lhumerus -28.1388 5.79312 81.9964
lradius 19.2277
lwrist -6.95914
lhand -21.4788 -9.81557
lfingers 7.12502
lthumb 4.91203 20.1075
rfemur -22.1238 6.31434 18.0411
rtibia 5.52958
rfoot -18.7585 -7.64756
rtoes -37.2802
lfemur -24.1897 -8.62759 -20.2208
ltibia 7.65041
lfoot -8.49013 0.768429
ltoes -35.6411
34
root 19.1884 16.3693 36.4376 -152.492 -1.39829 178.307
lowerback -31.7147 -1.59486 -6.7919
upperback -2.63254 -0.648563 -0.558287
thorax 13.5517 -1.08665 2.69492
lowerneck -3.9364 -1.98898 2.76133
upperneck 6.0129 -2.88713 -0.219206
head 2.53795 -1.4069 -0.642332
rclavicle -5.51627e-015 2.94201e-014
rhumerus -35.5154 -20.4358 -78.6312
rradius 27.9759
rwrist 0.70286
rhand -8.13059 -56.0768
rfingers 7.12502
rthumb 17.7832 -85.2836
lclavicle -5.51627e-015 2.94201e-014
lhumerus -28.2288 6.13195 81.6799
lradius 18.8338
lwrist -7.29404
lhand -22.1857 -9.90015
lfingers 7.12502
lthumb 4.22948 20.0376
rfemur -22.1989 6.46389 18.0355
rtibia 5.52856
rfoot -18.7648 -7.68252
rtoes -37.5663
lfemur -24.251 -8.58077 -20.1902
ltibia 7.64538
lfoot -8.55743 0.78559
ltoes -35.8227
35
root 19.1934 16.3703 36.4315 -152.609 -1.21354 178.355
lowerback -31.6661 -1.54313 -6.86296
upperback -2.61252 -0.557923 -0.520408
thorax 13.5459 -1.04831 2.81208
lowerneck -4.01887 -1.99291 2.76889
upperneck 6.20071 -2.90047 -0.236598
head 2.61563 -1.41344 -0.653434
rclavicle 7.35503e-015 2.74323e-014
rhumerus -35.678 -20.6514 -78.3704
rradius 27.8122
rwrist 0.814985
rhand -8.12488 -55.3262
rfingers 7.12502
rthumb 17.7887 -84.5326
lclavicle 7.35503e-015 2.74323e-014
lhumerus -28.3627 6.30555 81.5742
lradius 18.3926
lwrist -7.51406
lhand -23.4728 -10.3526
lfingers 7.12502
lthumb 2.98653 19.6062
rfemur -22.0923 6.90161 17.9655
rtibia 5.48845
rfoot -18.6423 -7.93711
rtoes -37.8382
lfemur -24.0738 -8.65336 -20.0764
ltibia 7.55788
lfoot -8.62265 1.03394
ltoes -35.7533
36
root 19.1886 16.3664 36.4362 -152.424 -1.33873 178.32
lowerback -31.7633 -1.56201 -6.80296
upperback -2.66088 -0.610767 -0.52852
thorax 13.5364 -1.07295 2.74702
lowerneck -4.23826 -1.96484 2.91236
upperneck 6.39192 -2.88015 -0.294259
head 2.71874 -1.40035 -0.70214
rclavicle -1.04362e-015 5.1684e-015
rhumerus -35.8072 -20.8892 -78.1693
rradius 27.6901
rwrist 0.981243
rhand -8.16125 -55.7987
rfingers 7.12502
rthumb 17.7537 -85.0082
lclavicle -1.04362e-015 5.1684e-015
lhumerus -28.4549 6.67755 81.3293
lradius 17.9775
lwrist -7.91199
lhand -22.7672 -9.69429
lfingers 7.12502
lthumb 3.66787 20.2539
rfemur -22.2965 6.3081 18.0446
rtibia 5.5314
rfoot -18.5594 -7.46867
rtoes -37.4331
lfemur -24.3149 -8.61903 -20.1647
ltibia 7.63456
lfoot -8.59958 0.818753
ltoes -35.7798
37
root 19.1973 16.3673 36.434 -152.428 -1.11274 178.345
lowerback -31.8028 -1.51357 -6.89133
upperback -2.65054 -0.514642 -0.531145
thorax 13.555 -1.03634 2.82915
lowerneck -4.31392 -1.93967 3.07136
upperneck 6.41304 -2.85982 -0.307444
head 2.73839 -1.38669 -0.734697
rclavicle 1.0138e-014 -2.3059e-014
rhumerus -35.9447 -21.1976 -77.94
rradius 27.5045
rwrist 1.20269
rhand -8.01734 -56.6784
rfingers 7.12502
rthumb 17.8922 -85.8754
lclavicle 1.0138e-014 -2.3059e-014
lhumerus -28.5343 7.44394 80.8938
lradius 17.5271
lwrist -8.81829
lhand -22.8287 -8.37392
lfingers 7.12502
lthumb 3.60856 21.5753
rfemur -22.4207 6.73408 17.942
rtibia 5.62626
rfoot -18.4833 -7.63253
rtoes -37.0105
lfemur -24.3131 -8.60145 -20.0594
ltibia 7.59748
lfoot -8.56343 1.13291
ltoes -35.9636
